{
    "asset" : {
        "generator" : "Khronos glTF Blender I/O v1.3.48",
        "version" : "2.0"
    },
    "scene" : 0,
    "scenes" : [
        {
            "name" : "Scene",
            "nodes" : [
                0,
                1,
                2,
                3,
                4,
                5,
                6,
                7,
                8
            ]
        }
    ],
    "nodes" : [
        {
            "name" : "Light",
            "rotation" : [
                0.16907575726509094,
                0.7558803558349609,
                -0.27217137813568115,
                0.570947527885437
            ],
            "translation" : [
                4.076245307922363,
                5.903861999511719,
                -1.0054539442062378
            ]
        },
        {
            "name" : "Camera",
            "rotation" : [
                0.483536034822464,
                0.33687159419059753,
                -0.20870360732078552,
                0.7804827094078064
            ],
            "translation" : [
                7.358891487121582,
                4.958309173583984,
                6.925790786743164
            ]
        },
        {
            "name" : "PhysCamera001",
            "rotation" : [
                0.6283546090126038,
                0.310820996761322,
                -0.30240482091903687,
                0.6458421945571899
            ],
            "scale" : [
                0.30480000376701355,
                0.30480000376701355,
                0.30480000376701355
            ],
            "translation" : [
                2.901371955871582,
                0.8531067371368408,
                2.1233363151550293
            ]
        },
        {
            "name" : "PhysCamera001.Target",
            "scale" : [
                0.30480000376701355,
                0.30480000376701355,
                0.30480000376701355
            ],
            "translation" : [
                -0.07111762464046478,
                0.748685359954834,
                -0.24959437549114227
            ]
        },
        {
            "name" : "VRayLight001",
            "rotation" : [
                0.21263112127780914,
                -0.21263110637664795,
                -0.6743797063827515,
                0.6743797659873962
            ],
            "scale" : [
                0.30480000376701355,
                0.30480000376701355,
                0.30480000376701355
            ],
            "translation" : [
                1.694500207901001,
                0.44709378480911255,
                1.0948158502578735
            ]
        },
        {
            "name" : "VRayLight002",
            "scale" : [
                0.30480000376701355,
                0.30480000376701355,
                0.30480000376701355
            ],
            "translation" : [
                35.18727111816406,
                0,
                11.984467506408691
            ]
        },
        {
            "name" : "PhysCamera002",
            "rotation" : [
                0.6972241997718811,
                -0.0021091627422720194,
                0.0020514270290732384,
                0.7168471217155457
            ],
            "scale" : [
                0.30480000376701355,
                0.30480000376701355,
                0.30480000376701355
            ],
            "translation" : [
                -0.09325332194566727,
                0.8531067371368408,
                3.512033700942993
            ]
        },
        {
            "name" : "PhysCamera002.Ziel",
            "scale" : [
                0.30480000376701355,
                0.30480000376701355,
                0.30480000376701355
            ],
            "translation" : [
                -0.07111762464046478,
                0.748685359954834,
                -0.24959437549114227
            ]
        },
        {
            "mesh" : 0,
            "name" : "CoffeeCup"
        }
    ],
    "animations" : [
        {
            "channels" : [
                {
                    "sampler" : 0,
                    "target" : {
                        "node" : 2,
                        "path" : "translation"
                    }
                },
                {
                    "sampler" : 1,
                    "target" : {
                        "node" : 2,
                        "path" : "rotation"
                    }
                },
                {
                    "sampler" : 2,
                    "target" : {
                        "node" : 2,
                        "path" : "scale"
                    }
                }
            ],
            "name" : "PhysCamera001|Take 001|BaseLayer",
            "samplers" : [
                {
                    "input" : 4,
                    "interpolation" : "LINEAR",
                    "output" : 5
                },
                {
                    "input" : 4,
                    "interpolation" : "LINEAR",
                    "output" : 6
                },
                {
                    "input" : 4,
                    "interpolation" : "LINEAR",
                    "output" : 7
                }
            ]
        },
        {
            "channels" : [
                {
                    "sampler" : 0,
                    "target" : {
                        "node" : 6,
                        "path" : "translation"
                    }
                },
                {
                    "sampler" : 1,
                    "target" : {
                        "node" : 6,
                        "path" : "rotation"
                    }
                },
                {
                    "sampler" : 2,
                    "target" : {
                        "node" : 6,
                        "path" : "scale"
                    }
                }
            ],
            "name" : "PhysCamera002|Take 001|BaseLayer",
            "samplers" : [
                {
                    "input" : 4,
                    "interpolation" : "LINEAR",
                    "output" : 8
                },
                {
                    "input" : 4,
                    "interpolation" : "LINEAR",
                    "output" : 9
                },
                {
                    "input" : 4,
                    "interpolation" : "LINEAR",
                    "output" : 10
                }
            ]
        }
    ],
    "materials" : [
        {
            "doubleSided" : true,
            "emissiveFactor" : [
                0,
                0,
                0
            ],
            "name" : "CoffeeCup_Ceramic",
            "pbrMetallicRoughness" : {
                "baseColorFactor" : [
                    0.5704708099365234,
                    0.5137447714805603,
                    0.4829123914241791,
                    1
                ],
                "metallicFactor" : 0,
                "roughnessFactor" : 0.10000000149011612
            }
        }
    ],
    "meshes" : [
        {
            "name" : "Cylinder.001",
            "primitives" : [
                {
                    "attributes" : {
                        "POSITION" : 0,
                        "NORMAL" : 1,
                        "TEXCOORD_0" : 2
                    },
                    "indices" : 3,
                    "material" : 0
                }
            ]
        }
    ],
    "accessors" : [
        {
            "bufferView" : 0,
            "componentType" : 5126,
            "count" : 3376,
            "max" : [
                0.10825111716985703,
                0.05849716439843178,
                0.06914957612752914
            ],
            "min" : [
                -0.06914956867694855,
                -0.03992249071598053,
                -0.06914957612752914
            ],
            "type" : "VEC3"
        },
        {
            "bufferView" : 1,
            "componentType" : 5126,
            "count" : 3376,
            "type" : "VEC3"
        },
        {
            "bufferView" : 2,
            "componentType" : 5126,
            "count" : 3376,
            "type" : "VEC2"
        },
        {
            "bufferView" : 3,
            "componentType" : 5123,
            "count" : 17136,
            "type" : "SCALAR"
        },
        {
            "bufferView" : 4,
            "componentType" : 5126,
            "count" : 101,
            "max" : [
                4.208333333333333
            ],
            "min" : [
                0.041666666666666664
            ],
            "type" : "SCALAR"
        },
        {
            "bufferView" : 5,
            "componentType" : 5126,
            "count" : 101,
            "type" : "VEC3"
        },
        {
            "bufferView" : 6,
            "componentType" : 5126,
            "count" : 101,
            "type" : "VEC4"
        },
        {
            "bufferView" : 7,
            "componentType" : 5126,
            "count" : 101,
            "type" : "VEC3"
        },
        {
            "bufferView" : 8,
            "componentType" : 5126,
            "count" : 101,
            "type" : "VEC3"
        },
        {
            "bufferView" : 9,
            "componentType" : 5126,
            "count" : 101,
            "type" : "VEC4"
        },
        {
            "bufferView" : 10,
            "componentType" : 5126,
            "count" : 101,
            "type" : "VEC3"
        }
    ],
    "bufferViews" : [
        {
            "buffer" : 0,
            "byteLength" : 40512,
            "byteOffset" : 0
        },
        {
            "buffer" : 0,
            "byteLength" : 40512,
            "byteOffset" : 40512
        },
        {
            "buffer" : 0,
            "byteLength" : 27008,
            "byteOffset" : 81024
        },
        {
            "buffer" : 0,
            "byteLength" : 34272,
            "byteOffset" : 108032
        },
        {
            "buffer" : 0,
            "byteLength" : 404,
            "byteOffset" : 142304
        },
        {
            "buffer" : 0,
            "byteLength" : 1212,
            "byteOffset" : 142708
        },
        {
            "buffer" : 0,
            "byteLength" : 1616,
            "byteOffset" : 143920
        },
        {
            "buffer" : 0,
            "byteLength" : 1212,
            "byteOffset" : 145536
        },
        {
            "buffer" : 0,
            "byteLength" : 1212,
            "byteOffset" : 146748
        },
        {
            "buffer" : 0,
            "byteLength" : 1616,
            "byteOffset" : 147960
        },
        {
            "buffer" : 0,
            "byteLength" : 1212,
            "byteOffset" : 149576
        }
    ],
    "buffers" : [
        {
            "byteLength" : 150788,
            "uri" : "data:application/octet-stream;base64,"
        }
    ]
}
